<svg width="720" height="560" viewBox="0 0 720 560" fill="none" xmlns="http://www.w3.org/2000/svg"><defs><radialGradient id="bg"><stop stop-color="#7657FF" stop-opacity=".7"/><stop offset="1" stop-color="#101534" stop-opacity="0"/></radialGradient><linearGradient id="body" x1="270" y1="190" x2="450" y2="430"><stop stop-color="#fff"/><stop offset="1" stop-color="#BFC4FF"/></linearGradient><linearGradient id="screen" x1="295" y1="215" x2="425" y2="300"><stop stop-color="#15193F"/><stop offset="1" stop-color="#36237A"/></linearGradient></defs><ellipse cx="360" cy="285" rx="340" ry="260" fill="url(#bg)"/><g opacity=".8" stroke="#8B7CFF"><rect x="60" y="150" width="150" height="110" rx="20"/><rect x="510" y="120" width="150" height="110" rx="20"/><rect x="525" y="340" width="125" height="100" rx="20"/><path d="M210 205h70M440 205h70M450 375h75" stroke-dasharray="6 8"/></g><g><ellipse cx="360" cy="470" rx="155" ry="28" fill="#4F46E5" opacity=".25"/><rect x="225" y="448" width="270" height="35" rx="17" fill="#27235E"/><ellipse cx="360" cy="448" rx="120" ry="22" fill="#8B7CFF" opacity=".45"/><path d="M287 327c0-44 33-80 73-80s73 36 73 80v79c0 37-33 58-73 58s-73-21-73-58v-79Z" fill="url(#body)"/><rect x="273" y="184" width="174" height="130" rx="62" fill="url(#body)"/><rect x="292" y="206" width="136" height="82" rx="39" fill="url(#screen)"/><ellipse cx="329" cy="247" rx="11" ry="19" fill="#D8B4FE"/><ellipse cx="391" cy="247" rx="11" ry="19" fill="#D8B4FE"/><circle cx="270" cy="250" r="22" fill="#7568D9"/><circle cx="450" cy="250" r="22" fill="#7568D9"/><path d="M360 325 391 382h-16l-8-14h-17l-8 14h-15l33-57Zm0 24-6 10h12l-6-10Z" fill="#5B45F5"/></g><g fill="#A78BFA"><circle cx="135" cy="190" r="6"/><circle cx="580" cy="170" r="6"/><circle cx="585" cy="385" r="6"/></g><g stroke="#A78BFA" stroke-width="5" stroke-linecap="round"><path d="M100 190h70M125 215h45"/><path d="M550 165h70M550 190h45"/><path d="M555 380h55M555 405h35"/></g></svg>